<svg width="187" height="35" viewBox="0 0 187 35" fill="none" xmlns="http://www.w3.org/2000/svg">
    <path d="M34.1448 25.3323H34.9675C35.1711 25.3323 35.3625 25.2478 35.5377 25.0841L47.1745 14.0207V24.0484C47.1745 24.9043 47.5043 25.3323 48.1641 25.3323H48.82C49.4798 25.3323 49.8096 24.9043 49.8096 24.0484V10.8455C49.8096 10.09 49.435 9.71489 48.6897 9.71489H47.8913C47.6835 9.71489 47.4882 9.8047 47.3048 9.9792L35.6802 21V10.9988C35.6802 10.1429 35.3504 9.71487 34.6906 9.71487H34.0347C33.3749 9.71487 33.0449 10.1429 33.0449 10.9988V24.1699C33.0449 24.9466 33.4117 25.3323 34.1448 25.3323L34.1448 25.3323ZM55.12 19.2355V24.0484C55.12 24.9043 54.79 25.3323 54.13 25.3323H53.4743C52.8143 25.3323 52.4845 24.9043 52.4845 24.0484V10.9829C52.4845 10.1377 52.8143 9.71491 53.4743 9.71491H54.13C54.79 9.71491 55.12 10.1377 55.12 10.9829V16.3401H66.2109V10.9829C66.2109 10.1377 66.5409 9.71491 67.2007 9.71491H67.8565C68.5163 9.71491 68.8461 10.1377 68.8461 10.9829V24.0484C68.8461 24.9043 68.5163 25.3323 67.8565 25.3323H67.2007C66.5409 25.3323 66.2109 24.9043 66.2109 24.0484V19.2355H55.12ZM83.834 10.983V11.3106C83.834 12.1665 83.5038 12.5943 82.8401 12.5943H78.4249V24.0484C78.4249 24.9043 78.0988 25.3323 77.4475 25.3323H76.7548C76.1031 25.3323 75.7774 24.9043 75.7774 24.0484V12.5943H71.362C70.7022 12.5943 70.3722 12.1665 70.3722 11.3106V10.983C70.3722 10.1377 70.7022 9.71495 71.362 9.71495H82.844C83.5038 9.71495 83.834 10.1377 83.834 10.983H83.834ZM102.952 20.6408C102.952 23.7684 101.143 25.3323 97.5221 25.3323H91.042C90.4146 25.3323 89.7303 25.2213 88.9891 24.9943C86.5862 24.26 85.3845 22.8651 85.3845 20.8151V18.8179C85.3845 17.1962 86.036 15.9756 87.3395 15.1515C88.3334 14.5229 89.531 14.2058 90.9363 14.2058H100.304C100.17 13.1439 99.131 12.6104 97.1881 12.6104H95.1883C94.5409 12.6104 94.2148 12.1876 94.2148 11.3421V10.9988C94.2148 10.1429 94.5409 9.71491 95.1924 9.71491H96.6506C100.85 9.71491 102.952 11.3159 102.952 14.5121V20.6408L102.952 20.6408ZM100.304 20.8151V17.1011H90.8872C90.3822 17.1011 89.8406 17.2171 89.2497 17.455C88.4392 17.7877 88.032 18.2369 88.032 18.8022V20.7836C88.032 21.4334 88.5044 21.893 89.4534 22.1571C89.7794 22.2522 90.2844 22.3473 90.9687 22.4529H97.5467C99.3838 22.4529 100.304 21.9088 100.304 20.8151L100.304 20.8151ZM123.251 23.2455L115.051 10.0267C114.771 9.58299 114.355 9.36084 113.797 9.36084C113.247 9.36084 112.844 9.57241 112.579 9.99495L104.335 23.2455C104.103 23.6153 103.989 23.9639 103.989 24.2969C103.989 24.989 104.36 25.3323 105.097 25.3323H105.851C106.168 25.3323 106.425 25.1792 106.616 24.8676L113.809 13.1863L120.97 24.8676C121.161 25.1792 121.414 25.3323 121.731 25.3323H122.485C123.226 25.3323 123.593 24.989 123.593 24.2969C123.593 23.9639 123.479 23.6153 123.251 23.2455L123.251 23.2455ZM126.174 25.3323H126.997C127.2 25.3323 127.392 25.2478 127.567 25.0841L139.204 14.0208V24.0484C139.204 24.9043 139.534 25.3323 140.194 25.3323H140.849C141.509 25.3323 141.839 24.9043 141.839 24.0484V10.8455C141.839 10.09 141.464 9.7149 140.719 9.7149H139.921C139.713 9.7149 139.517 9.8047 139.334 9.97921L127.709 21V10.9988C127.709 10.1429 127.38 9.71488 126.72 9.71488H126.064C125.404 9.71488 125.074 10.1429 125.074 10.9988V24.1699C125.074 24.9466 125.441 25.3323 126.174 25.3323L126.174 25.3323ZM157.878 22.902C158.338 23.1925 158.57 23.6102 158.57 24.1543C158.57 24.9413 158.191 25.3323 157.438 25.3323H156.603C156.448 25.3323 156.302 25.2849 156.159 25.1951L147.105 19.452V24.0484C147.105 24.9043 146.779 25.3323 146.127 25.3323H145.455C144.803 25.3323 144.477 24.9043 144.477 24.0484V10.9829C144.477 10.1377 144.803 9.71492 145.455 9.71492H146.127C146.787 9.71492 147.112 10.1377 147.105 10.9829V15.907L156.041 9.85766C156.257 9.76236 156.403 9.71491 156.481 9.71491H157.246C157.992 9.71491 158.366 10.1059 158.366 10.8931C158.366 11.411 158.142 11.8229 157.686 12.1347L149.565 17.6505L157.878 22.9019L157.878 22.902ZM178.132 20.6408C178.132 23.7684 176.324 25.3323 172.703 25.3323H166.222C165.595 25.3323 164.911 25.2213 164.169 24.9943C161.766 24.26 160.565 22.8651 160.565 20.8151V18.8179C160.565 17.1962 161.217 15.9756 162.52 15.1515C163.514 14.5229 164.711 14.2058 166.116 14.2058H175.484C175.35 13.1439 174.311 12.6104 172.369 12.6104H170.369C169.721 12.6104 169.395 12.1876 169.395 11.3421V10.9988C169.395 10.1429 169.721 9.71491 170.373 9.71491H171.831C176.03 9.71491 178.132 11.3159 178.132 14.5121V20.6408L178.132 20.6408ZM175.484 20.8151V17.1011H166.067C165.563 17.1011 165.021 17.2171 164.43 17.455C163.62 17.7877 163.212 18.2369 163.212 18.8022V20.7836C163.212 21.4334 163.685 21.893 164.634 22.1571C164.96 22.2522 165.465 22.3473 166.149 22.4529H172.727C174.564 22.4529 175.484 21.9088 175.484 20.8151L175.484 20.8151Z"
          fill="#FF671F"/>
    <path d="M0.43376 4.29379H6.94789H7.07171V4.41771V5.03778V5.16171H6.94789H0.867378V28.5854H8.84083V11.8516L16.3022 7.5581V28.5853H24.2756V5.16167H18.1951H18.0713V5.03775V4.41767V4.29375H18.1951H24.7094H25.0192H25.143V4.41767V4.72771V29.0193V29.3293V29.4533H25.0192H24.7094H0.43376H0.123975H0V29.3293V29.0193V4.72771V4.41767V4.29375H0.123975H0.43376V4.29379ZM16.3022 5.17521V0L8.84083 4.29348V9.46884L16.3022 5.1752V5.17521Z"
          fill="#FF671F"/>
</svg>
