<svg width="215" height="46" viewBox="0 0 215 46" fill="none" xmlns="http://www.w3.org/2000/svg">
<path d="M86.2715 10.9902V31.5981H92.4856V10.9902H103.773V5.89331H74.9863V10.9902H86.2715Z" fill="#363630"/>
<path d="M65.6611 25.1836C63.4326 26.9398 60.7226 27.8308 57.6056 27.8308C54.5242 27.8308 51.8607 26.9485 49.6899 25.2069C47.4912 23.444 46.3347 21.273 46.2541 18.7451C46.1933 16.2255 47.3074 14.0417 49.566 12.2536C51.7832 10.4961 54.4888 9.60636 57.6056 9.60636C60.706 9.60636 63.3793 10.4932 65.5526 12.2441C67.7512 14.0153 68.8964 16.1938 68.9573 18.7143C69.0378 21.218 67.9282 23.3934 65.6611 25.1836V25.1836ZM66.3138 6.93896C63.6738 5.70541 60.7437 5.08154 57.6056 5.08154C54.4665 5.08154 51.5222 5.70303 48.8534 6.92853C46.1955 8.14774 44.0689 9.82687 42.533 11.9222C41.0136 13.9962 40.2791 16.2803 40.3499 18.7154C40.4581 22.5228 42.1303 25.7777 45.3179 28.3903C48.5291 31.0206 52.6639 32.3547 57.6056 32.3547C59.4934 32.3547 61.3945 32.0516 63.2576 31.4544C65.1144 30.8579 66.6933 30.0599 67.9514 29.0827L68.9573 28.3006V31.599H74.8903V18.7313C74.8903 16.2911 74.1178 14.0004 72.5944 11.9222C71.0575 9.82803 68.9463 8.15194 66.3138 6.93896V6.93896Z" fill="#363630"/>
<path d="M128.483 19.074C128.483 20.6792 128.023 22.2743 127.058 23.5892C125.022 26.3655 122.29 27.7765 118.987 27.7765C115.685 27.7765 112.952 26.3655 110.916 23.5892C109.952 22.2743 109.492 20.6792 109.492 19.074V5.89282H103.444V17.5963C103.444 20.2963 104.088 22.8021 105.354 25.046C106.616 27.2817 108.404 29.0747 110.667 30.3733C112.927 31.6694 115.485 32.328 118.265 32.328C121.786 32.328 124.894 31.3095 127.507 29.2965L128.512 28.5249V32.4028C128.512 34.9932 127.67 37.1771 126.011 38.8942C124.338 40.6241 121.962 41.5023 118.944 41.5023C116.655 41.5023 114.708 40.9799 113.154 39.9509C111.759 39.0261 110.74 37.7955 110.119 36.2872L104.585 37.8632C105.626 40.1861 107.348 42.1073 109.708 43.5838C112.275 45.1872 115.382 45.9998 118.944 45.9998C123.572 45.9998 127.344 44.687 130.158 42.0977C132.965 39.515 134.388 36.2522 134.388 32.4028C134.388 29.3228 134.391 24.8411 134.402 18.9601C134.41 13.4311 134.415 9.05715 134.416 5.89282H128.483V19.074Z" fill="#363630"/>
<path d="M161.912 25.1929C159.741 26.9428 157.067 27.8315 153.966 27.8315C150.848 27.8315 148.143 26.9408 145.925 25.1833C143.668 23.3941 142.554 21.2105 142.616 18.6877C142.696 16.164 143.851 13.993 146.049 12.2292C148.222 10.4884 150.886 9.60517 153.966 9.60517C157.083 9.60517 159.794 10.4971 162.021 12.2534C164.289 14.0423 165.399 16.2199 165.318 18.7182C165.257 21.2431 164.112 23.4216 161.912 25.1929ZM162.736 6.91569C160.056 5.69858 157.105 5.0813 153.966 5.0813C150.828 5.0813 147.897 5.69858 145.256 6.91359C142.627 8.12418 140.52 9.80447 138.994 11.906C137.479 13.9939 136.712 16.28 136.712 18.7047C136.712 32.937 136.703 41.9267 136.685 45.4585H142.587V28.2473L143.593 29.0295C144.853 30.0082 146.438 30.8154 148.305 31.4288C150.176 32.043 152.082 32.3554 153.966 32.3554C158.928 32.3554 163.07 31.0213 166.282 28.391C169.47 25.7787 171.143 22.5151 171.25 18.6919C171.305 16.2737 170.564 13.9918 169.051 11.906C167.525 9.80563 165.4 8.12534 162.736 6.91569V6.91569Z" fill="#363630"/>
<path d="M198.413 25.1836C196.184 26.9398 193.474 27.8308 190.357 27.8308C187.276 27.8308 184.612 26.9485 182.441 25.2069C180.243 23.444 179.087 21.273 179.006 18.7451C178.945 16.2255 180.059 14.0417 182.316 12.2536C184.535 10.4961 187.239 9.60636 190.357 9.60636C193.457 9.60636 196.131 10.4932 198.304 12.2441C200.503 14.0153 201.648 16.1938 201.709 18.7143C201.789 21.218 200.68 23.3934 198.413 25.1836V25.1836ZM199.065 6.93896C196.425 5.70541 193.495 5.08154 190.357 5.08154C187.218 5.08154 184.274 5.70303 181.605 6.92853C178.947 8.14774 176.82 9.82687 175.284 11.9222C173.764 13.9962 173.03 16.2803 173.101 18.7154C173.209 22.5228 174.882 25.7777 178.069 28.3903C181.28 31.0206 185.415 32.3547 190.357 32.3547C192.245 32.3547 194.146 32.0516 196.009 31.4544C197.866 30.8579 199.445 30.0599 200.703 29.0827L201.709 28.3006V31.599H207.642V18.7313C207.642 16.2911 206.868 14.0004 205.346 11.9222C203.809 9.82803 201.698 8.15194 199.065 6.93896Z" fill="#363630"/>
<path d="M211.537 3.01002H211.413V2.27637H211.558C211.796 2.27637 212.141 2.28593 212.141 2.63932C212.141 3.00256 211.72 3.01002 211.537 3.01002V3.01002ZM213.158 4.65323L212.171 3.44474C212.631 3.35501 212.927 3.01929 212.927 2.61296C212.927 2.16238 212.562 1.69385 211.759 1.69385H210.684V4.65323H211.413V3.55995L212.306 4.65323H213.158Z" fill="#363630"/>
<path d="M30.8732 5.89282H37.0421V31.5964L6.16858 31.5976V5.89282H12.3438V25.7067H18.5181V5.89282H24.6914V25.7067L30.8732 25.7079V5.89282Z" fill="#363630"/>
<path d="M24.7049 25.7048H30.8735V0.0011598L0 0V25.7048H6.17547V5.89089H12.3497V25.7048H18.5228L18.524 5.89089L24.7049 5.88973V25.7048Z" fill="#F7D917"/>
<path d="M211.673 0C209.835 0 208.346 1.42089 208.346 3.17388C208.346 4.92601 209.835 6.34776 211.673 6.34776C213.51 6.34776 215 4.92601 215 3.17388C215 1.42089 213.51 0 211.673 0ZM211.673 5.73773C210.189 5.73773 208.985 4.58941 208.985 3.17388C208.985 1.75835 210.189 0.61004 211.673 0.61004C213.156 0.61004 214.36 1.75835 214.36 3.17388C214.36 4.58941 213.156 5.73773 211.673 5.73773Z" fill="#363630"/>
</svg>
