<svg width="195" height="32" viewBox="0 0 195 32" fill="none" xmlns="http://www.w3.org/2000/svg">
<g clip-path="url(#clip0)">
<path d="M13.1968 0L0 17.9789H13.1968V0Z" fill="#AC2D1F"/>
<path d="M14.1968 31V1.03979H194V31H14.1968Z" fill="#F86630" stroke="#F86630" stroke-width="2"/>
<path d="M75.4449 11.0628H77.8553V16.6116L84.6044 10.9434V21.6631H82.194V16.1144L75.4449 21.7825V11.0628Z" fill="white"/>
<path d="M83.4394 8C83.4394 9.47172 82.3547 10.6252 80.6674 10.6252C78.9802 10.6252 77.8955 9.47172 77.8955 8H79.3417C79.3417 8.75575 79.7033 9.35239 80.6674 9.35239C81.6316 9.35239 81.9931 8.77564 81.9931 8H83.4394Z" fill="white"/>
<path d="M30.2703 13.3499H26.2129V21.6631H23.8025V11.0627H32.6807V21.6631H30.2703V13.3499Z" fill="white"/>
<path d="M34.9706 11.0627H41.5991V13.4095H37.381V15.1995H40.6952V17.5065H37.381V19.2964H41.5991V21.6631H34.9706V11.0627Z" fill="white"/>
<path fill-rule="evenodd" clip-rule="evenodd" d="M47.1029 11.0627H43.5676V21.6631H45.978V18.2622H47.1029C49.1919 18.2622 50.7586 16.6513 50.7586 14.6625C50.7586 12.6737 49.1919 11.0627 47.1029 11.0627ZM48.4286 14.6625C48.4286 15.3785 47.826 16.0348 47.0627 16.0348H45.978V13.3101H47.0627C47.8461 13.3101 48.4286 13.9465 48.4286 14.6625Z" fill="white"/>
<path fill-rule="evenodd" clip-rule="evenodd" d="M56.202 11.0627C57.9496 11.0627 59.3757 12.4748 59.3757 14.2051C59.3757 14.9608 59.0945 15.5575 58.6124 16.0348C59.5163 16.5121 60.1189 17.3872 60.1189 18.5208C60.1189 20.271 58.6928 21.6631 56.885 21.6631H52.1646V11.0627H56.202ZM55.9409 15.3387C56.5837 15.3387 57.0658 14.8813 57.0658 14.2846C57.0658 13.7079 56.6038 13.2306 55.9409 13.2306H54.5951V15.3387H55.9409ZM56.6841 19.4555C57.3269 19.4555 57.809 18.9981 57.809 18.4015C57.809 17.8247 57.347 17.3474 56.6841 17.3474H54.5951V19.4555H56.6841Z" fill="white"/>
<path fill-rule="evenodd" clip-rule="evenodd" d="M69.419 18.2026C69.419 16.2337 67.8522 14.7619 65.7632 14.7619H64.1965V11.0627H61.7861V21.6432H65.7632C67.8522 21.6432 69.419 20.1914 69.419 18.2026ZM67.0889 18.2026C67.0889 18.9981 66.5064 19.4158 65.7231 19.4158H64.1764V16.9695H65.7231C66.5064 16.9695 67.0889 17.4071 67.0889 18.2026Z" fill="white"/>
<path d="M73.1551 11.0627H70.7447V21.6631H73.1551V11.0627Z" fill="white"/>
<path d="M95.9935 16.2336L90.6505 10.9434V21.6631H93.0608V16.4524L95.9935 19.356L98.906 16.4524V21.6631H101.316V10.9434L95.9935 16.2336Z" fill="white"/>
<path d="M103.626 11.0627H110.255V13.4095H106.037V15.1995H109.351V17.5065H106.037V19.2964H110.255V21.6631H103.626V11.0627Z" fill="white"/>
<path fill-rule="evenodd" clip-rule="evenodd" d="M116.522 14.9012H114.634V13.4294H119.274V11.0627H112.223V21.6631H116.522C118.611 21.6631 120.178 20.1914 120.178 18.2821C120.178 16.3729 118.611 14.9012 116.522 14.9012ZM117.848 18.2821C117.848 18.9981 117.265 19.4158 116.482 19.4158H114.634V17.1286H116.482C117.265 17.1286 117.848 17.5662 117.848 18.2821Z" fill="white"/>
<path d="M121.805 11.0627H128.433V13.4095H124.215V15.1995H127.529V17.5065H124.215V19.2964H128.433V21.6631H121.805V11.0627Z" fill="white"/>
<path d="M139.923 21.6631L134.64 10.9434L129.377 21.6631H131.928L134.64 16.0944L137.372 21.6631H139.923Z" fill="white"/>
<path fill-rule="evenodd" clip-rule="evenodd" d="M145.045 14.7619C147.134 14.7619 148.7 16.2337 148.7 18.2026C148.7 20.1914 147.134 21.6432 145.045 21.6432H141.068V11.0627H143.478V14.7619H145.045ZM145.025 19.4158C145.808 19.4158 146.391 18.9981 146.391 18.2026C146.391 17.4071 145.808 16.9695 145.025 16.9695H143.478V19.4158H145.025Z" fill="white"/>
<path d="M152.577 11.0627H150.167V21.6631H152.577V17.5065H156.876V21.6631H159.286V11.0627H156.876V15.1995H152.577V11.0627Z" fill="white"/>
<path fill-rule="evenodd" clip-rule="evenodd" d="M165.553 14.7619C167.642 14.7619 169.209 16.2337 169.209 18.2026C169.209 20.1914 167.642 21.6432 165.553 21.6432H161.576V11.0627H163.986V14.7619H165.553ZM165.513 19.4158C166.296 19.4158 166.879 18.9981 166.879 18.2026C166.879 17.4071 166.296 16.9695 165.513 16.9695H163.966V19.4158H165.513Z" fill="white"/>
<path d="M170.535 11.0627H172.945V21.6631H170.535V11.0627Z" fill="white"/>
<path d="M177.645 11.0628H175.235V21.7825L181.984 16.1144V21.6631H184.394V10.9434L177.645 16.6116V11.0628Z" fill="white"/>
<path d="M180.457 10.6252C182.145 10.6252 183.229 9.47172 183.229 8H181.783C181.783 8.77564 181.421 9.35239 180.457 9.35239C179.493 9.35239 179.132 8.75575 179.132 8H177.685C177.685 9.47172 178.77 10.6252 180.457 10.6252Z" fill="white"/>
</g>
<defs>
<clipPath id="clip0">
<rect width="195" height="32" fill="white"/>
</clipPath>
</defs>
</svg>
